<svg viewBox="0 0 56.6815 77.7773" xmlns="http://www.w3.org/2000/svg" xmlns:xlink="http://www.w3.org/1999/xlink" width="56.681496" height="77.777344" fill="none" customFrame="#000000">
	<path id="Vector" d="M35.5638 6.90715C33.3257 5.99155 30.8734 5.48824 28.3033 5.48824C17.7177 5.48824 9.13458 14.066 9.13458 24.6516C9.13458 28.9083 10.5267 32.8438 12.8719 36.0243L12.8719 43.8792C7.24984 39.3601 3.65169 32.4261 3.65169 24.6516C3.65169 11.0354 14.6871 0 28.3033 0C33.0365 0 37.4593 1.3386 41.2127 3.65169L41.2127 23.6075C41.2127 31.0983 36.1849 37.2772 28.3622 37.2772C26.788 37.2772 25.278 36.9934 23.8859 36.4741L23.8859 30.097C25.1174 31.0715 26.6702 31.6551 28.3622 31.6551C32.3405 31.6551 35.5638 28.4318 35.5638 24.4535L35.5638 6.90715ZM21.1177 42.4067C23.3558 43.3277 25.8081 43.831 28.3782 43.831C38.9638 43.831 47.5416 35.2533 47.5416 24.6676C47.5416 20.4109 46.1548 16.4754 43.8042 13.2949L43.8042 5.44005C49.4317 9.95915 53.0298 16.8931 53.0298 24.6676C53.0298 38.2785 41.9944 49.3192 28.3782 49.3192C23.645 49.3192 19.2222 47.9806 15.4635 45.6675L15.4635 25.7117C15.4635 18.2156 20.4966 12.042 28.3193 12.042C29.8935 12.042 31.4035 12.3258 32.7956 12.8452L32.7956 19.2222C31.5641 18.2424 30.0113 17.6588 28.3193 17.6588C24.341 17.6588 21.1177 20.8874 21.1177 24.8604L21.1177 42.4067ZM8.95253 67.7383C8.95253 67.8186 8.92576 67.8775 8.87757 67.9203C8.82938 67.9685 8.76513 67.99 8.68481 67.99L7.12668 67.99C7.05708 67.99 6.99818 67.9632 6.94999 67.915C6.9018 67.8668 6.86432 67.8079 6.84826 67.7383L6.16825 64.9433L2.78428 64.9433L2.10427 67.7383C2.08821 67.8079 2.05073 67.8668 2.00254 67.915C1.95435 67.9632 1.89545 67.99 1.82584 67.99L0.267719 67.99C0.187403 67.99 0.12315 67.9685 0.074961 67.9203C0.0267716 67.8775 0 67.8186 0 67.7383C0 67.7276 0.00535553 67.7169 0.00535553 67.7115C0.0107099 67.7008 0.0160625 67.6848 0.0160625 67.6633L2.43089 58.4324C2.51656 58.0897 2.64507 57.822 2.81105 57.6239C2.97704 57.4311 3.15909 57.2812 3.35184 57.1741C3.53925 57.0724 3.73736 57.0081 3.94083 56.976C4.13894 56.9492 4.32099 56.9332 4.47626 56.9332C4.63154 56.9332 4.81359 56.9492 5.0117 56.976C5.21517 57.0081 5.41328 57.0724 5.60068 57.1741C5.79344 57.2812 5.97014 57.4311 6.14148 57.6239C6.30746 57.822 6.43597 58.0897 6.52164 58.4324L8.93646 67.6633C8.93646 67.6848 8.94182 67.7008 8.94182 67.7115C8.94717 67.7169 8.95253 67.7276 8.95253 67.7383ZM30.0167 67.7383C30.0167 67.8186 29.9953 67.8775 29.9471 67.9203C29.8989 67.9685 29.8346 67.99 29.7543 67.99L28.1908 67.99C28.1266 67.99 28.0677 67.9632 28.0195 67.915C27.9659 67.8668 27.9338 67.8079 27.9124 67.7383L27.2377 64.9433L23.8484 64.9433L23.1738 67.7383C23.1524 67.8079 23.1202 67.8668 23.072 67.915C23.0185 67.9632 22.9596 67.99 22.8953 67.99L21.3319 67.99C21.2569 67.99 21.1926 67.9685 21.1391 67.9203C21.0909 67.8775 21.0695 67.8186 21.0695 67.7383C21.0695 67.7276 21.0695 67.7169 21.0749 67.7115C21.0802 67.7008 21.0802 67.6848 21.0802 67.6633L23.495 58.4324C23.5861 58.0897 23.7146 57.822 23.8805 57.6239C24.0465 57.4311 24.2232 57.2812 24.416 57.1741C24.6087 57.0724 24.8069 57.0081 25.005 56.976C25.2084 56.9492 25.3851 56.9332 25.5458 56.9332C25.701 56.9332 25.8777 56.9492 26.0812 56.976C26.2847 57.0081 26.4774 57.0724 26.6702 57.1741C26.8629 57.2812 27.0396 57.4311 27.2056 57.6239C27.3716 57.822 27.5001 58.0897 27.5911 58.4324L30.006 67.6633C30.006 67.6848 30.006 67.7008 30.0113 67.7115C30.0167 67.7169 30.0167 67.7276 30.0167 67.7383ZM48.3929 67.5348C48.3929 67.6419 48.3608 67.7169 48.3019 67.7597C48.243 67.8079 48.168 67.84 48.0663 67.8722C48.0074 67.8936 47.911 67.915 47.7664 67.9364C47.6219 67.9632 47.4505 67.9846 47.2417 68.0114C47.0383 68.0381 46.808 68.0596 46.551 68.0756C46.2994 68.097 46.0263 68.1078 45.7425 68.1078C45.3034 68.1078 44.8322 68.0435 44.345 67.915C43.8524 67.7865 43.408 67.5563 43.001 67.2189C42.5941 66.8762 42.2621 66.4211 41.9944 65.8375C41.7267 65.2592 41.5928 64.515 41.5928 63.6047L41.5928 61.4362C41.5928 60.5152 41.7267 59.7603 41.9944 59.1766C42.2621 58.593 42.5941 58.1325 43.001 57.8006C43.408 57.4686 43.8524 57.2384 44.345 57.1152C44.8322 56.9921 45.3034 56.9332 45.7425 56.9332C46.0263 56.9332 46.2994 56.9439 46.551 56.9599C46.808 56.9813 47.0383 57.0028 47.2417 57.0295C47.4505 57.0509 47.6219 57.0777 47.7664 57.1098C47.911 57.1366 48.0074 57.158 48.0663 57.1687C48.168 57.1955 48.243 57.233 48.3019 57.2812C48.3608 57.324 48.3929 57.399 48.3929 57.5061L48.3929 58.4913C48.3929 58.5823 48.3715 58.6573 48.3287 58.7162C48.2805 58.7751 48.2055 58.8018 48.0984 58.8018L48.0663 58.8018C47.9431 58.7911 47.7879 58.7804 47.6058 58.7644C47.4238 58.7536 47.231 58.7376 47.0222 58.7269C46.8187 58.7215 46.6045 58.7108 46.3904 58.7001C46.1762 58.6894 45.9674 58.684 45.7693 58.684C45.4587 58.684 45.1696 58.7322 44.9126 58.8233C44.6502 58.9196 44.4253 59.0695 44.2433 59.2837C44.0559 59.4925 43.9059 59.7763 43.7989 60.1297C43.6918 60.4831 43.6382 60.9168 43.6382 61.4362L43.6382 63.6047C43.6382 64.1134 43.6918 64.5417 43.7989 64.8951C43.9059 65.2485 44.0559 65.5377 44.2433 65.7518C44.4253 65.966 44.6502 66.1213 44.9126 66.2177C45.1696 66.3087 45.4587 66.3569 45.7693 66.3569C45.9674 66.3569 46.1762 66.3515 46.3904 66.3408C46.6045 66.3301 46.8187 66.3194 47.0222 66.3087C47.231 66.3033 47.4238 66.2873 47.6058 66.2766C47.7879 66.2605 47.9431 66.2498 48.0663 66.2391L48.0984 66.2391C48.2055 66.2391 48.2805 66.2658 48.3287 66.3247C48.3715 66.3836 48.3929 66.4586 48.3929 66.5443L48.3929 67.5348ZM56.6815 67.5937C56.6815 67.7008 56.6601 67.7758 56.6172 67.8133C56.5691 67.8507 56.4941 67.8829 56.387 67.8989C56.2692 67.9203 56.1407 67.9418 55.9961 67.9685C55.8516 67.99 55.6749 68.0114 55.4661 68.0328C55.2572 68.0542 55.0002 68.0703 54.7004 68.0863C54.4005 68.1024 54.0311 68.1078 53.5867 68.1078C53.1101 68.1078 52.6604 68.0703 52.2481 67.99C51.8358 67.9096 51.4717 67.7597 51.1665 67.5402C50.8613 67.3207 50.6203 67.0101 50.4436 66.6192C50.2616 66.2284 50.1759 65.7197 50.1759 65.0879L50.1759 59.953C50.1759 59.3212 50.2616 58.8125 50.4436 58.4217C50.6203 58.0254 50.8613 57.7202 51.1665 57.5007C51.4717 57.2812 51.8358 57.1313 52.2481 57.0509C52.6604 56.9706 53.1101 56.9332 53.5867 56.9332C54.0311 56.9332 54.4005 56.9385 54.7004 56.9546C55.0002 56.9706 55.2572 56.9867 55.4661 57.0081C55.6749 57.0242 55.8516 57.0509 55.9961 57.0724C56.1407 57.0991 56.2692 57.1206 56.387 57.1366C56.4941 57.158 56.5691 57.1902 56.6172 57.2276C56.6601 57.2651 56.6815 57.3401 56.6815 57.4472L56.6815 58.3895C56.6815 58.4699 56.6494 58.5395 56.5905 58.5984C56.5316 58.6573 56.4673 58.684 56.387 58.684L53.3832 58.684C52.9495 58.684 52.6497 58.7751 52.4783 58.9518C52.307 59.1284 52.2213 59.4604 52.2213 59.953L52.2213 61.5433L56.2103 61.5433C56.2906 61.5433 56.3549 61.57 56.4138 61.6289C56.4727 61.6878 56.5048 61.7575 56.5048 61.8378L56.5048 62.8979C56.5048 62.9729 56.4727 63.0425 56.4138 63.1014C56.3549 63.1603 56.2906 63.1924 56.2103 63.1924L52.2213 63.1924L52.2213 65.0879C52.2213 65.5805 52.307 65.9125 52.4783 66.0891C52.6497 66.2658 52.9495 66.3569 53.3832 66.3569L56.387 66.3569C56.4673 66.3569 56.5316 66.3836 56.5905 66.4425C56.6494 66.5014 56.6815 66.571 56.6815 66.6514L56.6815 67.5937ZM16.2398 67.5937C16.2398 67.7008 16.2184 67.7758 16.1756 67.8133C16.1274 67.8507 16.0524 67.8829 15.9454 67.8989C15.8383 67.9311 15.683 67.9578 15.4795 67.9792C15.2814 68.006 15.0619 68.0274 14.8263 68.0489C14.5907 68.0703 14.3497 68.081 14.1034 68.0917C13.8571 68.1024 13.6376 68.1078 13.4395 68.1078C12.963 68.1078 12.5132 68.0703 12.1009 67.99C11.6886 67.9096 11.3299 67.7597 11.03 67.5402C10.7248 67.3207 10.4839 67.0101 10.3072 66.6192C10.1305 66.2284 10.0395 65.7197 10.0395 65.0879L10.0395 57.3454C10.0395 57.2651 10.0716 57.1955 10.1305 57.1366C10.1894 57.0777 10.259 57.0509 10.334 57.0509L11.7904 57.0509C11.8707 57.0509 11.9403 57.0777 11.9992 57.1366C12.0581 57.1955 12.0902 57.2651 12.0902 57.3454L12.0902 65.0879C12.0902 65.5805 12.1705 65.9125 12.3365 66.0891C12.5025 66.2658 12.8023 66.3569 13.236 66.3569L15.9454 66.3569C16.0257 66.3569 16.0899 66.3836 16.1488 66.4425C16.2077 66.5014 16.2398 66.571 16.2398 66.6514L16.2398 67.5937ZM19.6827 67.6955C19.6827 67.7758 19.6559 67.84 19.597 67.8989C19.5381 67.9578 19.4685 67.99 19.3882 67.99L17.9318 67.99C17.8515 67.99 17.7873 67.9578 17.7284 67.8989C17.6695 67.84 17.6373 67.7758 17.6373 67.6955L17.6373 57.3294C17.6373 57.2544 17.6695 57.1848 17.7284 57.1313C17.7873 57.0777 17.8515 57.0509 17.9318 57.0509L19.3882 57.0509C19.4685 57.0509 19.5381 57.0777 19.597 57.1313C19.6559 57.1848 19.6827 57.2544 19.6827 57.3294L19.6827 67.6955ZM39.676 67.401C39.676 67.567 39.6224 67.7062 39.51 67.8186C39.3922 67.9311 39.253 67.99 39.087 67.99L37.5985 67.99C37.4271 67.99 37.2612 67.9685 37.1059 67.9203C36.956 67.8775 36.8221 67.7222 36.7043 67.4599L33.4328 60.2904C33.3953 60.21 33.3525 60.1726 33.3043 60.1726C33.2507 60.1726 33.2293 60.21 33.2293 60.2904L33.2293 67.6955C33.2293 67.7758 33.2025 67.84 33.149 67.8989C33.0954 67.9578 33.0258 67.99 32.9509 67.99L31.6979 67.99C31.6176 67.99 31.548 67.9578 31.4891 67.8989C31.4302 67.84 31.4035 67.7758 31.4035 67.6955L31.4035 57.6399C31.4035 57.4739 31.457 57.3347 31.5748 57.2223C31.6872 57.1098 31.8265 57.0509 31.9924 57.0509L33.5827 57.0509C33.738 57.0509 33.8665 57.0777 33.9575 57.1366C34.0485 57.1955 34.1395 57.324 34.2306 57.5221L37.6574 65.0879C37.6895 65.1682 37.727 65.2057 37.7752 65.2057C37.8287 65.2057 37.8501 65.1628 37.8501 65.0718L37.8501 57.3294C37.8501 57.142 37.9465 57.0509 38.1286 57.0509L39.3976 57.0509C39.585 57.0509 39.676 57.142 39.676 57.3294L39.676 67.401ZM4.71186 58.8929C4.69044 58.8018 4.66902 58.7429 4.6369 58.7055C4.61012 58.6733 4.55658 58.6573 4.47626 58.6573C4.39595 58.6573 4.34241 58.6733 4.31563 58.7055C4.28351 58.7429 4.26209 58.8018 4.24067 58.8929L3.1805 63.262L5.77202 63.262L4.71186 58.8929ZM25.7814 58.8929C25.7599 58.8018 25.7332 58.7429 25.7064 58.7055C25.6743 58.6733 25.6207 58.6573 25.5458 58.6573C25.4654 58.6573 25.4119 58.6733 25.3798 58.7055C25.353 58.7429 25.3262 58.8018 25.3102 58.8929L24.25 63.262L26.8415 63.262L25.7814 58.8929ZM5.47218 72.9053C5.47218 73.3176 5.39722 73.6656 5.25265 73.944C5.10273 74.2278 4.90462 74.4527 4.65831 74.6294C4.40666 74.8007 4.12288 74.9185 3.79626 74.9935C3.46964 75.0631 3.12696 75.1006 2.76286 75.1006C2.63436 75.1006 2.48979 75.0952 2.32916 75.0845C2.16317 75.0792 2.02931 75.0685 1.92222 75.0631L1.92222 77.5154C1.92222 77.5636 1.90616 77.6064 1.87403 77.6439C1.83655 77.6814 1.79372 77.7028 1.74553 77.7028L0.808513 77.7028C0.754969 77.7028 0.712134 77.6814 0.674653 77.6439C0.637173 77.6064 0.615755 77.5636 0.615755 77.5154L0.615755 71.0527C0.615755 70.9616 0.642526 70.892 0.696069 70.8546C0.749613 70.8117 0.824576 70.785 0.920955 70.7742C1.1619 70.7368 1.44568 70.7046 1.76695 70.6832C2.08821 70.6618 2.42018 70.6511 2.76286 70.6511C3.12696 70.6511 3.46964 70.6832 3.79626 70.7528C4.12288 70.8224 4.41201 70.9402 4.65831 71.1116C4.90462 71.2775 5.10273 71.5024 5.25265 71.7809C5.39722 72.0593 5.47218 72.4073 5.47218 72.8196L5.47218 72.9053ZM11.5655 77.5904C11.5655 77.6653 11.528 77.7028 11.453 77.7028L10.3072 77.7028C10.259 77.7028 10.2162 77.6814 10.1947 77.6439C10.168 77.6064 10.1412 77.5636 10.1198 77.5154L8.76512 75.0149L8.63662 75.0149C8.50812 75.0149 8.3689 75.0096 8.20291 75.0042C8.04228 74.9935 7.90842 74.9828 7.80134 74.9774L7.80134 77.5154C7.80134 77.5636 7.77992 77.6064 7.74779 77.6439C7.71567 77.6814 7.67283 77.7028 7.61929 77.7028L6.68227 77.7028C6.63408 77.7028 6.59125 77.6814 6.55377 77.6439C6.51628 77.6064 6.49487 77.5636 6.49487 77.5154L6.49487 71.0527C6.49487 70.9616 6.52164 70.892 6.57518 70.8546C6.62873 70.8117 6.70369 70.785 6.79471 70.7742C7.04101 70.7368 7.3248 70.7046 7.6407 70.6832C7.96197 70.6618 8.29394 70.6511 8.64197 70.6511C9.00072 70.6511 9.34875 70.6886 9.67537 70.7582C10.002 70.8331 10.2858 70.9509 10.5321 71.1116C10.7837 71.2722 10.9818 71.4917 11.1264 71.7648C11.2763 72.0379 11.3459 72.3698 11.3459 72.7714L11.3459 72.8571C11.3459 73.3604 11.2335 73.762 11.0033 74.0779C10.773 74.3884 10.4625 74.624 10.0716 74.774L11.5441 77.5154C11.5601 77.5315 11.5655 77.5582 11.5655 77.5904ZM17.5891 74.8489C17.5891 75.3683 17.5249 75.8127 17.391 76.1822C17.2518 76.5516 17.0698 76.8515 16.8342 77.0871C16.5932 77.3226 16.3148 77.494 15.9882 77.6064C15.6616 77.7189 15.3082 77.7778 14.9173 77.7778C14.5318 77.7778 14.1784 77.7189 13.8518 77.6064C13.5252 77.494 13.2467 77.3226 13.0058 77.0871C12.7702 76.8515 12.5882 76.5516 12.4489 76.1822C12.3151 75.8127 12.2508 75.3683 12.2508 74.8489L12.2508 73.5799C12.2508 73.0659 12.3151 72.6215 12.4489 72.252C12.5882 71.8772 12.7702 71.5774 13.0058 71.3418C13.2467 71.1062 13.5252 70.9349 13.8518 70.8224C14.1784 70.71 14.5318 70.6511 14.9173 70.6511C15.3082 70.6511 15.6616 70.71 15.9882 70.8224C16.3148 70.9349 16.5932 71.1062 16.8342 71.3418C17.0698 71.5774 17.2518 71.8772 17.391 72.252C17.5249 72.6215 17.5891 73.0659 17.5891 73.5799L17.5891 74.8489ZM23.8698 74.9025C23.8698 75.8341 23.6182 76.5463 23.1042 77.0389C22.5955 77.5315 21.8673 77.7778 20.9196 77.7778C20.7482 77.7778 20.5715 77.7724 20.3841 77.7671C20.2021 77.7617 20.02 77.751 19.8487 77.7403C19.6774 77.7242 19.5221 77.7135 19.3829 77.7028C19.2383 77.6868 19.1312 77.676 19.067 77.6653C18.9813 77.6493 18.9224 77.6225 18.8796 77.5797C18.8421 77.5368 18.8207 77.4672 18.8207 77.3708L18.8207 71.0527C18.8207 70.9616 18.8421 70.892 18.8796 70.8492C18.9224 70.8064 18.9813 70.7742 19.067 70.7635C19.1312 70.7528 19.2383 70.7368 19.3829 70.7261C19.5221 70.7153 19.6774 70.6993 19.8487 70.6886C20.02 70.6779 20.2021 70.6672 20.3841 70.6618C20.5715 70.6564 20.7482 70.6511 20.9196 70.6511C21.8673 70.6511 22.5955 70.8974 23.1042 71.39C23.6182 71.8772 23.8698 72.5894 23.8698 73.5264L23.8698 74.9025ZM35.7084 77.4083C35.7084 77.4779 35.6923 77.5261 35.6548 77.5582C35.6174 77.585 35.5638 77.6064 35.4996 77.6279C35.4621 77.6386 35.3978 77.6546 35.3122 77.6707C35.2211 77.6867 35.1087 77.6975 34.9748 77.7135C34.8463 77.7296 34.6964 77.7456 34.5358 77.7563C34.3751 77.7724 34.1984 77.7778 34.0164 77.7778C33.738 77.7778 33.4381 77.7349 33.1276 77.6546C32.8117 77.5743 32.5279 77.4244 32.2709 77.2102C32.0139 76.9907 31.7997 76.7015 31.6283 76.3321C31.457 75.9626 31.3713 75.4861 31.3713 74.9025L31.3713 73.5264C31.3713 72.9374 31.457 72.4555 31.6283 72.0807C31.7997 71.7113 32.0139 71.4168 32.2709 71.2026C32.5279 70.9938 32.8117 70.8492 33.1276 70.7689C33.4381 70.6886 33.738 70.6511 34.0164 70.6511C34.1984 70.6511 34.3751 70.6564 34.5358 70.6725C34.6964 70.6832 34.8463 70.6993 34.9748 70.71C35.1087 70.726 35.2211 70.7475 35.3122 70.7635C35.3978 70.7849 35.4621 70.7957 35.4996 70.801C35.5638 70.8224 35.6174 70.8438 35.6548 70.8706C35.6923 70.8974 35.7084 70.9509 35.7084 71.0152L35.7084 71.647C35.7084 71.7005 35.6923 71.7487 35.6655 71.7862C35.6388 71.8237 35.5906 71.8451 35.521 71.8451L35.4996 71.8451C35.4192 71.8398 35.3229 71.8291 35.2051 71.8183C35.0926 71.813 34.9695 71.8023 34.8356 71.7969C34.7018 71.7916 34.5679 71.7862 34.434 71.7755C34.295 71.7702 34.1613 71.7702 34.0383 71.7702L34.0378 71.7702C33.8397 71.7702 33.6523 71.7969 33.4863 71.8558C33.3203 71.9147 33.1811 72.0165 33.0633 72.1503C32.9402 72.2842 32.8491 72.4609 32.7795 72.6858C32.7099 72.916 32.6778 73.1944 32.6778 73.5264L32.6778 74.9025C32.6778 75.2291 32.7099 75.5022 32.7795 75.7324C32.8491 75.9573 32.9402 76.1393 33.0633 76.2732C33.1811 76.4124 33.3203 76.5088 33.4863 76.5677C33.6523 76.6319 33.8397 76.6587 34.0378 76.6587C34.161 76.6587 34.2948 76.6534 34.434 76.648L34.8356 76.6319C34.9695 76.6266 35.0926 76.6159 35.2051 76.6052C35.3229 76.5998 35.4192 76.5891 35.4996 76.5837L35.521 76.5837C35.5906 76.5837 35.6388 76.6052 35.6655 76.6426C35.6923 76.6801 35.7084 76.723 35.7084 76.7819L35.7084 77.4083ZM50.1438 74.8489C50.1438 75.3683 50.0795 75.8127 49.9457 76.1822C49.8118 76.5516 49.6244 76.8515 49.3888 77.0871C49.1479 77.3226 48.8695 77.494 48.5428 77.6064C48.2162 77.7189 47.8628 77.7778 47.4773 77.7778C47.0864 77.7778 46.7331 77.7189 46.4064 77.6064C46.0852 77.494 45.8014 77.3226 45.5658 77.0871C45.3249 76.8515 45.1428 76.5516 45.0089 76.1822C44.8751 75.8127 44.8055 75.3683 44.8055 74.8489L44.8055 73.5799C44.8055 73.0659 44.8751 72.6215 45.0089 72.252C45.1428 71.8772 45.3249 71.5774 45.5658 71.3418C45.8014 71.1062 46.0852 70.9349 46.4064 70.8224C46.7331 70.71 47.0864 70.6511 47.4773 70.6511C47.8628 70.6511 48.2162 70.71 48.5428 70.8224C48.8695 70.9349 49.1479 71.1062 49.3888 71.3418C49.6244 71.5774 49.8118 71.8772 49.9457 72.252C50.0795 72.6215 50.1438 73.0659 50.1438 73.5799L50.1438 74.8489ZM30.1987 75.122Q30.1987 75.8689 30.006 76.3749C29.8775 76.7176 29.7008 76.9853 29.4705 77.1941C29.2403 77.403 28.9672 77.5475 28.6513 77.6385C28.3354 77.7296 27.9927 77.7778 27.6179 77.7778C27.2431 77.7778 26.8951 77.7296 26.5792 77.6385C26.2632 77.5475 25.9902 77.403 25.7599 77.1941C25.5351 76.9853 25.3584 76.7176 25.2299 76.3749Q25.0371 75.8689 25.0371 75.122L25.0371 70.9027C25.0371 70.8546 25.0532 70.8117 25.0906 70.7796C25.1281 70.7421 25.171 70.7261 25.2245 70.7261L26.1508 70.7261C26.2044 70.7261 26.2472 70.7421 26.2847 70.7796C26.3221 70.8117 26.3382 70.8546 26.3382 70.9027L26.3382 75.1273C26.3382 75.3951 26.3596 75.6307 26.3971 75.8288C26.4346 76.0215 26.4988 76.1875 26.6006 76.3214C26.697 76.4552 26.8255 76.5516 26.9861 76.6105C27.1521 76.6748 27.3609 76.7069 27.6179 76.7069C27.8642 76.7069 28.073 76.6748 28.239 76.6105C28.405 76.5516 28.5389 76.4552 28.6352 76.3214C28.7316 76.1875 28.8012 76.0215 28.8387 75.8288C28.8762 75.6307 28.8923 75.3951 28.8923 75.1273L28.8923 70.9027C28.8923 70.8546 28.9137 70.8117 28.9511 70.7796C28.9886 70.7421 29.0315 70.7261 29.0797 70.7261L30.0113 70.7261C30.0595 70.7261 30.1023 70.7421 30.1398 70.7796C30.1773 70.8117 30.1987 70.8546 30.1987 70.9027L30.1987 75.122ZM41.3412 71.647C41.3412 71.6952 41.3198 71.738 41.2823 71.7702C41.2448 71.8023 41.202 71.813 41.1538 71.813L39.51 71.813L39.51 77.5154C39.51 77.5636 39.4939 77.6064 39.4565 77.6439C39.419 77.6814 39.3708 77.7028 39.3226 77.7028L38.3909 77.7028C38.3427 77.7028 38.2999 77.6814 38.2624 77.6439C38.2249 77.6064 38.2035 77.5636 38.2035 77.5154L38.2035 71.813L36.5651 71.813C36.5115 71.813 36.4687 71.8023 36.4312 71.7702C36.3937 71.738 36.3777 71.6952 36.3777 71.647L36.3777 70.9027C36.3777 70.8546 36.3937 70.8117 36.4312 70.7796C36.4687 70.7421 36.5115 70.7261 36.5651 70.7261L41.1538 70.7261C41.202 70.7261 41.2448 70.7421 41.2823 70.7796C41.3198 70.8117 41.3412 70.8546 41.3412 70.9027L41.3412 71.647ZM43.5847 77.5154C43.5847 77.5636 43.5633 77.6064 43.5258 77.6439C43.4883 77.6814 43.4455 77.7028 43.3973 77.7028L42.4656 77.7028C42.4174 77.7028 42.3746 77.6814 42.3371 77.6439C42.2996 77.6064 42.2782 77.5636 42.2782 77.5154L42.2782 70.9027C42.2782 70.8546 42.2996 70.8117 42.3371 70.7796C42.3746 70.7421 42.4174 70.7261 42.4656 70.7261L43.3973 70.7261C43.4455 70.7261 43.4883 70.7421 43.5258 70.7796C43.5633 70.8117 43.5847 70.8546 43.5847 70.9027L43.5847 77.5154ZM56.6494 77.328C56.6494 77.4297 56.6172 77.5208 56.5423 77.5957C56.4727 77.6653 56.3816 77.7028 56.2746 77.7028L55.3268 77.7028C55.2144 77.7028 55.1127 77.6867 55.0163 77.66C54.9146 77.6332 54.8289 77.5315 54.7539 77.3655L52.6711 72.7928C52.6443 72.7393 52.6175 72.7179 52.5854 72.7179C52.5533 72.7179 52.5426 72.7393 52.5426 72.7928L52.5426 77.5154C52.5426 77.5636 52.5211 77.6064 52.489 77.6439C52.4515 77.6814 52.4141 77.7028 52.3605 77.7028L51.5627 77.7028C51.5145 77.7028 51.4717 77.6814 51.4342 77.6439C51.3967 77.6064 51.3753 77.5636 51.3753 77.5154L51.3753 71.1009C51.3753 70.9938 51.4128 70.9081 51.4824 70.8331C51.5574 70.7635 51.643 70.7261 51.7501 70.7261L52.7674 70.7261C52.8638 70.7261 52.9441 70.7475 53.003 70.785C53.0619 70.8224 53.1208 70.9027 53.1797 71.0259L55.3643 75.8502C55.3857 75.9037 55.4072 75.9252 55.4393 75.9252C55.4714 75.9252 55.4875 75.8984 55.4875 75.8448L55.4875 70.9027C55.4875 70.7849 55.5464 70.7261 55.6642 70.7261L56.4727 70.7261C56.5905 70.7261 56.6494 70.7849 56.6494 70.9027L56.6494 77.328ZM4.16571 72.8143C4.16571 72.418 4.04791 72.1396 3.81232 71.9736C3.58208 71.8023 3.22869 71.722 2.75751 71.722L2.7573 71.722C2.70914 71.722 2.64495 71.722 2.56475 71.7273C2.48979 71.7273 2.40947 71.7327 2.32916 71.738C2.24349 71.738 2.16853 71.7434 2.09892 71.7434C2.02396 71.7487 1.96506 71.7541 1.92222 71.7594L1.92222 74.0029C1.9597 74.0029 2.0186 74.0029 2.09892 74.0083C2.17388 74.0083 2.25419 74.0136 2.33986 74.019C2.42553 74.019 2.50585 74.0243 2.58617 74.0243C2.66113 74.0297 2.72003 74.0297 2.75751 74.0297C3.26617 74.0297 3.62492 73.9387 3.84445 73.7459C4.05862 73.5585 4.16571 73.2747 4.16571 72.8999L4.16571 72.8143ZM22.5687 73.5264C22.5687 73.1784 22.5259 72.8839 22.4402 72.659C22.3546 72.4287 22.2368 72.2467 22.0922 72.1128C21.9423 71.979 21.7709 71.8826 21.5675 71.8291C21.364 71.7755 21.1445 71.7487 20.9142 71.7487C20.7375 71.7487 20.5876 71.7541 20.4645 71.7594C20.3359 71.7648 20.2235 71.7701 20.1271 71.7755L20.1271 76.6587C20.2235 76.6641 20.3359 76.6694 20.4645 76.6801C20.5874 76.6855 20.7371 76.6855 20.9135 76.6855L20.9142 76.6855C21.1445 76.6855 21.364 76.6587 21.5675 76.6052C21.7709 76.557 21.9423 76.4606 22.0922 76.3267C22.2368 76.1875 22.3546 76.0108 22.4402 75.7806C22.5259 75.5503 22.5687 75.2612 22.5687 74.9078L22.5687 73.5264ZM10.0448 72.7714C10.0448 72.418 9.92702 72.161 9.69143 72.0057C9.45584 71.8451 9.10245 71.7702 8.63662 71.7702L8.63639 71.7702C8.58289 71.7702 8.51872 71.7702 8.44386 71.7755C8.36355 71.7755 8.28323 71.7809 8.20291 71.7809C8.1226 71.7862 8.04764 71.7862 7.97268 71.7916C7.90307 71.7969 7.84417 71.8023 7.80134 71.8076L7.80134 73.9173L7.8015 73.9173C7.83898 73.9173 7.89782 73.9173 7.97268 73.9226C8.05299 73.928 8.13331 73.928 8.21898 73.9333C8.30465 73.9333 8.38496 73.9387 8.45992 73.944L8.63662 73.944C9.12387 73.944 9.48261 73.8691 9.7075 73.7138C9.93238 73.5532 10.0448 73.2694 10.0448 72.8571L10.0448 72.7714ZM16.288 73.5799C16.288 72.9535 16.1756 72.4984 15.9507 72.2146C15.7312 71.9308 15.3831 71.7862 14.9173 71.7862C14.4568 71.7862 14.1088 71.9308 13.8893 72.2146C13.6644 72.4984 13.5519 72.9535 13.5519 73.5799L13.5519 74.8489C13.5519 75.4754 13.6644 75.9305 13.8893 76.2143C14.1088 76.4981 14.4568 76.6426 14.9173 76.6426C15.3831 76.6426 15.7312 76.4981 15.9507 76.2143C16.1756 75.9305 16.288 75.4754 16.288 74.8489L16.288 73.5799ZM48.8427 73.5799C48.8427 72.9535 48.7302 72.4984 48.5054 72.2146C48.2858 71.9308 47.9378 71.7862 47.4773 71.7862C47.0115 71.7862 46.6688 71.9308 46.4439 72.2146C46.219 72.4984 46.1119 72.9535 46.1119 73.5799L46.1119 74.8489C46.1119 75.4754 46.219 75.9305 46.4439 76.2143C46.6688 76.4981 47.0115 76.6426 47.4773 76.6426C47.9378 76.6426 48.2858 76.4981 48.5054 76.2143C48.7302 75.9305 48.8427 75.4754 48.8427 74.8489L48.8427 73.5799Z" fill="rgb(130.05,138.465,153)" fill-rule="evenodd" />
</svg>
